<svg xmlns="http://www.w3.org/2000/svg" viewBox="0 0 101 100">
    <g fill="#666" fill-rule="evenodd">
        <path d="M1.804 98.431h97.213V1.218H1.804v97.213zm-1 1h99.213V.218H.804v99.213z"/>
        <path d="M14.9776 75.0859h1.969v5.611h.747v-5.611h1.942v-.683h-4.658v.683zm9.882 5.611h3.894v-.71h-3.138v-2.203h2.643v-.702h-2.643v-1.969h3.138v-.71h-3.894v6.294zm9.37 0h.755v-2.886h1.151l1.565 2.886h.836l-1.591-2.94.108-.009c.395-.072.728-.261.989-.576.26-.315.395-.665.395-1.07 0-.467-.171-.863-.512-1.196-.333-.333-.747-.503-1.223-.503h-2.473v6.294zm.755-5.584h1.718c.539 0 .98.441.98.989 0 .279-.099.513-.297.71-.189.189-.422.288-.683.288h-1.718v-1.987zm11.771 2.841l-2.086-3.551h-.666v6.294h.756v-4.685l1.996 3.399 2.014-3.408v4.694h.755v-6.294h-.674l-2.095 3.551zm8.623 2.743h.755v-6.294h-.755v6.294zm10.449-1.502l-3.228-4.792h-.675v6.294h.756v-4.865l3.273 4.865h.62v-6.294h-.746v4.792zm5.971 1.502h.791l.584-1.663h2.392l.594 1.663h.791l-2.248-6.294h-.674l-2.23 6.294zm1.627-2.374l.917-2.599h.036l.926 2.599h-1.879zm8.803 2.374h3.615v-.71h-2.859v-5.584h-.756v6.294zM50.9111 68.5675v-37.522h-1v37.522h-34.933v1h70.866v-1zM21.3243 20.4445c.02-.406.153-.69.511-.761.235-.051.337-.111.337-.203 0-.081-.122-.111-.296-.111-.235 0-.501.03-.828.03-.296 0-.46-.01-.766-.01-.174 0-.297.03-.297.111 0 .092.194.163.337.203.287.082.409.589.419 1.106.021.781.041 1.735.041 2.181 0 1.583-.633 2.638-2.033 2.638-1.247 0-2.147-.73-2.147-2.353v-2.851c0-.406.266-.68.43-.731.224-.071.337-.111.337-.203 0-.081-.123-.111-.297-.111-.214 0-.5.02-.817.02-.378 0-.675-.03-.981-.03-.174 0-.297.03-.297.111 0 .092.102.163.338.223.224.061.47.254.47.741v3.115c0 1.552.919 2.576 2.749 2.576 1.502 0 2.637-1.105 2.688-2.678.03-.933.03-1.846.102-3.013zm5.038-.203c0-.396.399-.467.91-.558.235-.04.337-.111.337-.203 0-.081-.122-.111-.296-.111-.552 0-.787.03-1.288.03-.449 0-.593-.03-1.144-.03-.174 0-.297.03-.297.111 0 .092.102.163.337.203.511.091.624.142.624.629v4.707c0 .447-.297.629-.828.731-.041.01-.225.051-.225.172 0 .071.102.122.286.122 0 0 .869-.051 1.38-.051 1.022 0 2.136.051 3.506.051.102 0 .132-.081.143-.172.041-.426.133-.761.276-1.289 0-.01.01-.03.01-.05 0-.082-.041-.183-.123-.183-.092 0-.194.223-.225.304-.173.365-.265.487-.531.721-.184.162-.521.263-.572.263h-1.493c-.674 0-.787-.203-.787-.619v-4.778zm8.381 4.718v-4.627c0-.416.051-.466.572-.466h.971c.654 0 .89.182.941.466.051.264.092.416.194.416.102 0 .163-.203.163-.324v-.122c0-.264.072-.629.164-1.004 0-.021.01-.061.01-.092 0-.101-.031-.233-.072-.233-.153 0-.306.223-.51.365-.103.071-.297.142-.593.142h-3.894c-.286 0-.634-.061-.716-.203-.061-.111-.204-.324-.255-.324-.051 0-.143.01-.174.233-.061.426-.133.741-.317 1.126-.03.061-.051.142-.051.203 0 .071.021.132.072.132.153 0 .357-.274.419-.386.143-.263.511-.395.838-.395h.48c.348 0 .562 0 .756.04.164.031.184.254.184.437v4.616c0 .487-.286.7-.797.791-.235.04-.337.091-.337.183 0 .081.123.111.296.111.552 0 .798-.051 1.309-.051.47 0 .643.051 1.195.051.174 0 .297-.03.297-.111 0-.092-.102-.143-.338-.183-.511-.091-.807-.304-.807-.791zm8.881-2.263c.562-.284 1.206-.791 1.206-1.704 0-1.106-.807-1.664-2.299-1.664-.593 0-.787.051-1.176.051-.419 0-.449-.01-1.001-.01-.174 0-.296.03-.296.111 0 .092.102.163.337.203.511.091.623.406.623 1.015v4.281c0 .497-.235.68-.746.771-.235.04-.337.091-.337.183 0 .081.123.111.296.111.552 0 .808-.071 1.329-.071.388 0 .45.071 1.001.071.174 0 .297-.03.297-.111 0-.092-.102-.143-.337-.183-.511-.091-.685-.436-.685-.873v-1.745c0-.121.041-.213.153-.202.184.02.511.081.808.223.204.101.327.213.439.395.705 1.137 1.053 1.502 1.554 2.111.357.436.827.547 1.41.547.255 0 .828-.06.828-.355 0-.081-.051-.111-.154-.111-.48 0-.817-.021-1.175-.335-.961-.862-1.441-1.623-2.075-2.577-.04-.061-.051-.112 0-.132zm.287-1.542c0 .781-.593 1.502-1.533 1.502-.338 0-.542-.021-.542-.355 0-.812.01-1.38.041-2.121.01-.304.092-.548.654-.548 1.155 0 1.38.7 1.38 1.522zm8.819-.659c.041-.112.062-.173.082-.173.031 0 .051.061.092.183l.808 2.425c.01.04.02.081.02.101 0 .051-.041.051-.143.051h-1.584c-.133 0-.215 0-.215-.071 0-.021.01-.051.021-.081l.919-2.435zm3.424 5.549c.174 0 .297-.02.297-.101 0-.092-.103-.193-.338-.234-.408-.071-.746-.203-1.032-1.014-.337-.964-1.165-3.358-1.819-5.418-.031-.091-.051-.243-.102-.243s-.072.264-.215.355c-.123.081-.245.111-.368.152-.02.01.01.162-.143.588-.685 1.877-1.145 3.034-1.911 4.769-.225.507-.532.679-.879.781-.225.071-.337.142-.337.233 0 .081.122.132.296.132.337 0 .777-.061 1.227-.061.378 0 .746.021.93.021.173 0 .296-.031.296-.112 0-.091-.102-.142-.337-.203-.327-.081-.593-.284-.593-.578 0-.132.317-1.147.409-1.41.051-.142.112-.183.173-.183h1.953c.184 0 .245.01.275.112.154.507.389 1.298.389 1.592 0 .224-.174.386-.624.457-.184.03-.337.101-.337.193 0 .081.123.121.297.121.245 0 .674-.01 1.073-.01.46 0 1.134.061 1.42.061zm9.699-5.813c0-.325.501-.457.848-.558.062-.02.266-.122.266-.233 0-.092-.153-.102-.215-.102h-.03c-.205 0-.695.081-1.135.081h-.368c-.153 0-.132.568-.286.893l-2.013 4.16c-.041.081-.082.121-.113.121-.04 0-.081-.05-.122-.152l-1.615-4.068c-.102-.274-.184-.944-.368-.944-.266 0-1.318-.081-1.696-.081-.062 0-.236.01-.236.112 0 .091.082.152.144.172.245.061.643.112.848.345.112.132.153.213.153.325 0 .061.01.132.01.233 0 .852-.173 2.597-.419 4.424-.02.131-.122.7-.633.791-.235.04-.338.091-.338.183 0 .081.123.111.297.111.552 0 .562-.051.93-.051.378 0 .409.051.96.051.174 0 .297-.03.297-.111 0-.092-.102-.143-.337-.183-.501-.091-.665-.528-.665-.791 0-1.38.133-2.314.327-3.744.021-.152.072-.142.133 0 .767 1.775 1.298 3.033 1.83 4.616.051.152.092.264.143.264.041 0 .092-.071.173-.244l2.269-4.565c.051-.101.092-.162.113-.162.03 0 .051.05.051.162.061 1.37.122 2.273.122 3.733 0 .477-.122.68-.521.731-.235.03-.337.091-.337.183 0 .081.123.111.296.111.552 0 .655-.051 1.074-.051.47 0 .643.051 1.195.051.174 0 .297-.03.297-.111 0-.092-.103-.143-.338-.183-.511-.091-.746-.304-.766-.72-.082-1.532-.225-2.912-.225-4.799zm7.042.264c.041-.112.061-.173.081-.173.031 0 .051.061.092.183l.808 2.425c.01.04.02.081.02.101 0 .051-.041.051-.143.051h-1.584c-.133 0-.215 0-.215-.071 0-.021.011-.051.021-.081l.92-2.435zm3.423 5.549c.174 0 .297-.02.297-.101 0-.092-.102-.193-.338-.234-.408-.071-.746-.203-1.032-1.014-.337-.964-1.165-3.358-1.819-5.418-.031-.091-.051-.243-.102-.243s-.072.264-.215.355c-.122.081-.245.111-.368.152-.02.01.011.162-.143.588-.685 1.877-1.144 3.034-1.911 4.769-.225.507-.531.679-.879.781-.225.071-.337.142-.337.233 0 .081.123.132.296.132.338 0 .777-.061 1.227-.061.378 0 .746.021.93.021.173 0 .296-.031.296-.112 0-.091-.102-.142-.337-.203-.327-.081-.593-.284-.593-.578 0-.132.317-1.147.409-1.41.051-.142.112-.183.174-.183h1.952c.184 0 .245.01.276.112.153.507.388 1.298.388 1.592 0 .224-.174.386-.623.457-.184.03-.338.101-.338.193 0 .081.123.121.297.121.245 0 .674-.01 1.073-.01.46 0 1.134.061 1.42.061zm6.122-3.348c.562-.284 1.206-.791 1.206-1.704 0-1.106-.807-1.664-2.299-1.664-.593 0-.787.051-1.176.051-.419 0-.449-.01-1.001-.01-.174 0-.297.03-.297.111 0 .092.102.163.338.203.511.091.623.406.623 1.015v4.281c0 .497-.235.68-.746.771-.235.04-.337.091-.337.183 0 .081.122.111.296.111.552 0 .807-.071 1.329-.071.388 0 .449.071 1.001.071.174 0 .297-.03.297-.111 0-.092-.103-.143-.338-.183-.511-.091-.684-.436-.684-.873v-1.745c0-.121.04-.213.153-.202.184.02.511.081.807.223.205.101.327.213.44.395.705 1.137 1.052 1.502 1.553 2.111.358.436.828.547 1.411.547.255 0 .827-.06.827-.355 0-.081-.051-.111-.153-.111-.48 0-.817-.021-1.175-.335-.961-.862-1.441-1.623-2.075-2.577-.041-.061-.051-.112 0-.132zm.286-1.542c0 .781-.592 1.502-1.533 1.502-.337 0-.541-.021-.541-.355 0-.812.01-1.38.04-2.121.011-.304.092-.548.655-.548 1.154 0 1.379.7 1.379 1.522z"/>
        <path d="M41.808 38.8139c.083-1.657.621-2.816 2.071-3.106.952-.207 1.367-.456 1.367-.829 0-.331-.497-.455-1.201-.455-.953 0-2.03.124-3.355.124-1.201 0-1.864-.041-3.107-.041-.704 0-1.201.124-1.201.455 0 .373.787.663 1.367.829 1.16.331 1.657 2.402 1.698 4.514.083 3.189.166 7.082.166 8.905 0 6.461-2.568 10.768-8.242 10.768-5.053 0-8.698-2.982-8.698-9.609v-11.638c0-1.657 1.077-2.775 1.74-2.982.911-.29 1.367-.455 1.367-.828 0-.332-.497-.456-1.201-.456-.87 0-2.03.083-3.314.083-1.532 0-2.733-.124-3.976-.124-.704 0-1.201.124-1.201.455 0 .373.414.663 1.367.912.911.248 1.905 1.035 1.905 3.023v12.715c0 6.337 3.728 10.52 11.141 10.52 6.088 0 10.686-4.515 10.893-10.934.124-3.811.124-7.538.414-12.301m30.707 18.431v-18.887c0-1.698.207-1.905 2.32-1.905h3.934c2.651 0 3.604.746 3.811 1.905.207 1.077.372 1.699.787 1.699.414 0 .662-.829.662-1.326v-.497c0-1.077.29-2.568.663-4.1 0-.083.041-.249.041-.373 0-.414-.124-.952-.29-.952-.621 0-1.242.911-2.07 1.491-.415.289-1.202.579-2.403.579H64.191c-1.16 0-2.568-.248-2.9-.828-.248-.456-.828-1.325-1.035-1.325-.207 0-.58.041-.704.952-.249 1.74-.539 3.024-1.284 4.598-.124.248-.207.579-.207.828 0 .29.083.538.29.538.621 0 1.449-1.118 1.698-1.573.58-1.077 2.071-1.616 3.396-1.616h1.947c1.408 0 2.278 0 3.064.166.663.124.746 1.035.746 1.781v18.845c0 1.988-1.16 2.857-3.231 3.23-.952.166-1.366.373-1.366.746 0 .331.497.455 1.201.455 2.236 0 3.23-.207 5.301-.207 1.905 0 2.609.207 4.846.207.704 0 1.201-.124 1.201-.455 0-.373-.414-.58-1.367-.746-2.071-.373-3.272-1.242-3.272-3.23"/>
    </g>
</svg>