<?xml version="1.0" encoding="UTF-8" standalone="no"?>
<svg
   xmlns:dc="http://purl.org/dc/elements/1.1/"
   xmlns:cc="http://creativecommons.org/ns#"
   xmlns:rdf="http://www.w3.org/1999/02/22-rdf-syntax-ns#"
   xmlns:svg="http://www.w3.org/2000/svg"
   xmlns="http://www.w3.org/2000/svg"
   viewBox="0 0 101 100"
   version="1.1"
   id="svg10">
  <metadata
     id="metadata16">
    <rdf:RDF>
      <cc:Work
         rdf:about="">
        <dc:format>image/svg+xml</dc:format>
        <dc:type
           rdf:resource="http://purl.org/dc/dcmitype/StillImage" />
        <dc:title></dc:title>
      </cc:Work>
    </rdf:RDF>
  </metadata>
  <defs
     id="defs14" />
  <g
     fill="#666"
     fill-rule="evenodd"
     id="g8">
    <text
       xml:space="preserve"
       style="font-size:16px;line-height:1.25;font-family:'Palatino Linotype';-inkscape-font-specification:'Palatino Linotype';font-weight:normal;font-style:normal;font-stretch:normal;font-variant:normal;"
       x="32.738094"
       y="86.805557"
       id="text39"><tspan
         id="tspan37"
         x="32.738094"
         y="86.805557" /></text>
    <g
       id="g975">
      <path
         d="M1.804 98.431h97.213V1.218H1.804v97.213zm-1 1h99.213V.218H.804v99.213z"
         id="path2" />
      <g
         id="g910">
        <g
           aria-label="GODNOSKOP"
           id="text24"
           style="font-size:9.33333px;line-height:1.25;font-family:sans-serif" />
        <g
           aria-label="PORTAL"
           id="text43"
           style="font-size:9.33333px;line-height:1.25;font-family:sans-serif">
          <g
             id="g1001">
            <path
               id="path912"
               style="font-size:9.33333px;line-height:1.25;font-family:'Palatino Linotype';font-style:normal;font-variant:normal;font-weight:normal;font-stretch:normal;-inkscape-font-specification:'Palatino Linotype'"
               d="M 59.345703 19.316406 C 58.680338 19.316406 58.150825 19.498698 57.755859 19.863281 C 57.360895 20.224826 57.164064 20.68967 57.164062 21.257812 C 57.164062 21.467448 57.196832 21.66428 57.263672 21.849609 C 57.333551 22.031901 57.424696 22.186849 57.537109 22.314453 C 57.652561 22.439019 57.794705 22.542969 57.964844 22.625 C 58.134982 22.707027 58.306425 22.767141 58.476562 22.806641 C 58.649741 22.846135 58.887587 22.89084 59.191406 22.939453 C 59.50434 22.991102 59.740451 23.040364 59.898438 23.085938 C 60.056424 23.128471 60.194878 23.19401 60.316406 23.285156 C 60.440972 23.373264 60.536675 23.491754 60.603516 23.640625 C 60.673394 23.789496 60.708984 23.965494 60.708984 24.166016 C 60.708984 24.451606 60.636935 24.70855 60.494141 24.939453 C 60.351345 25.167318 60.150824 25.340495 59.892578 25.458984 C 59.637369 25.577474 59.349392 25.636719 59.027344 25.636719 C 58.793403 25.636719 58.560981 25.607635 58.330078 25.546875 C 58.102213 25.486111 57.919054 25.408637 57.779297 25.314453 C 57.642581 25.21723 57.56055 25.126085 57.533203 25.041016 C 57.508903 24.952908 57.48785 24.713107 57.472656 24.324219 L 57.4375 24.289062 L 57.212891 24.289062 L 57.177734 24.324219 C 57.162541 25.026041 57.139755 25.472658 57.109375 25.664062 L 57.136719 25.724609 C 57.610677 25.949435 58.16211 26.060547 58.791016 26.060547 C 59.54145 26.060547 60.179471 25.845486 60.705078 25.414062 C 61.233724 24.982639 61.498047 24.44401 61.498047 23.796875 C 61.498047 23.465712 61.422308 23.18316 61.273438 22.949219 C 61.127605 22.715278 60.931641 22.543837 60.685547 22.4375 C 60.442492 22.328125 60.053386 22.236111 59.515625 22.160156 C 59.123698 22.102428 58.851996 22.053165 58.703125 22.013672 C 58.557292 21.974175 58.42882 21.914931 58.316406 21.835938 C 58.207032 21.753907 58.116754 21.644532 58.046875 21.507812 C 57.976996 21.368055 57.943359 21.20855 57.943359 21.029297 C 57.943359 20.798394 57.999783 20.573351 58.115234 20.351562 C 58.230686 20.129774 58.402126 19.96658 58.626953 19.863281 C 58.851779 19.759983 59.093316 19.708984 59.351562 19.708984 C 59.661459 19.708984 59.948568 19.778212 60.212891 19.917969 C 60.477213 20.057726 60.6148 20.175347 60.626953 20.269531 C 60.639113 20.363715 60.64823 20.592449 60.654297 20.957031 L 60.691406 20.988281 L 60.927734 20.988281 L 60.96875 20.953125 C 60.983941 20.436632 61.024956 20.037326 61.091797 19.757812 L 61.060547 19.703125 C 60.805338 19.575518 60.519965 19.479816 60.207031 19.416016 C 59.897135 19.349176 59.610026 19.316406 59.345703 19.316406 z M 24.222656 19.320312 C 23.065104 19.320312 22.126302 19.630209 21.40625 20.25 C 20.689237 20.869792 20.332031 21.706598 20.332031 22.757812 C 20.332031 23.447483 20.491537 24.041667 20.810547 24.542969 C 21.129558 25.044271 21.559679 25.422526 22.103516 25.677734 C 22.647352 25.932942 23.257162 26.060547 23.931641 26.060547 C 24.809679 26.060547 25.665582 25.901041 26.498047 25.582031 L 26.525391 25.537109 C 26.491971 25.227213 26.474609 24.940104 26.474609 24.675781 C 26.474609 24.441841 26.480034 24.245009 26.492188 24.083984 C 26.507381 23.91992 26.520184 23.828774 26.529297 23.810547 C 26.53841 23.79232 26.570313 23.765842 26.625 23.732422 L 26.847656 23.599609 L 26.867188 23.544922 L 26.867188 23.408203 L 26.820312 23.373047 C 26.486111 23.391274 26.233724 23.400391 26.060547 23.400391 C 25.759766 23.400391 25.369575 23.392146 24.892578 23.376953 L 24.615234 23.367188 L 24.574219 23.408203 L 24.574219 23.609375 L 24.615234 23.650391 C 25.013238 23.656464 25.272136 23.671007 25.390625 23.695312 C 25.512154 23.719615 25.586807 23.763452 25.617188 23.824219 C 25.647566 23.881944 25.664063 24.029514 25.664062 24.269531 L 25.664062 24.775391 C 25.664063 25.070095 25.650394 25.266059 25.623047 25.363281 C 25.452908 25.45443 25.235026 25.526478 24.970703 25.578125 C 24.709418 25.626738 24.453342 25.650391 24.201172 25.650391 C 23.620877 25.650391 23.111328 25.516493 22.673828 25.246094 C 22.236328 24.975695 21.899956 24.599175 21.666016 24.119141 C 21.432075 23.636068 21.316406 23.115669 21.316406 22.556641 C 21.316406 22.015843 21.422961 21.524522 21.638672 21.083984 C 21.857422 20.640408 22.18099 20.303168 22.609375 20.072266 C 23.03776 19.841363 23.529948 19.726562 24.085938 19.726562 C 24.347221 19.726562 24.592448 19.749349 24.820312 19.794922 C 25.048177 19.837457 25.275173 19.906684 25.5 20.003906 C 25.727865 20.09809 25.869141 20.16927 25.923828 20.214844 C 25.978515 20.257376 26.010418 20.291013 26.019531 20.318359 C 26.031685 20.345703 26.041668 20.43967 26.050781 20.597656 L 26.074219 21.080078 L 26.109375 21.117188 L 26.320312 21.117188 L 26.355469 21.083984 C 26.428387 20.43381 26.492188 20.008246 26.546875 19.804688 L 26.515625 19.753906 C 25.838108 19.465278 25.07335 19.320312 24.222656 19.320312 z M 30.886719 19.326172 C 30.327691 19.326172 29.82639 19.418186 29.382812 19.603516 C 28.939236 19.785808 28.55816 20.045573 28.242188 20.382812 C 27.929254 20.717014 27.708768 21.081598 27.578125 21.476562 C 27.447483 21.871529 27.380859 22.296224 27.380859 22.751953 C 27.380859 23.107422 27.447483 23.50217 27.578125 23.933594 C 27.711806 24.365017 27.923177 24.744141 28.214844 25.072266 C 28.509548 25.400391 28.865017 25.647352 29.28125 25.814453 C 29.697483 25.978515 30.153212 26.060547 30.648438 26.060547 C 31.347221 26.060547 31.976129 25.909288 32.535156 25.605469 C 33.097222 25.301649 33.529297 24.876953 33.830078 24.330078 C 34.130859 23.783203 34.28125 23.165148 34.28125 22.478516 C 34.28125 21.503256 33.975043 20.735893 33.361328 20.173828 C 32.747613 19.608724 31.922743 19.326172 30.886719 19.326172 z M 53.203125 19.326172 C 52.644098 19.326172 52.142795 19.418186 51.699219 19.603516 C 51.255642 19.785808 50.876519 20.045573 50.560547 20.382812 C 50.247613 20.717014 50.025173 21.081598 49.894531 21.476562 C 49.763889 21.871529 49.699219 22.296224 49.699219 22.751953 C 49.699219 23.107422 49.763889 23.50217 49.894531 23.933594 C 50.028212 24.365017 50.241537 24.744141 50.533203 25.072266 C 50.827908 25.400391 51.183377 25.647352 51.599609 25.814453 C 52.015842 25.978515 52.471572 26.060547 52.966797 26.060547 C 53.665582 26.060547 54.294488 25.909288 54.853516 25.605469 C 55.415582 25.301649 55.845703 24.876953 56.146484 24.330078 C 56.447266 23.783203 56.597656 23.165148 56.597656 22.478516 C 56.597656 21.503256 56.29145 20.735893 55.677734 20.173828 C 55.064019 19.608724 54.239149 19.326172 53.203125 19.326172 z M 72.216797 19.326172 C 71.65777 19.326172 71.156467 19.418186 70.712891 19.603516 C 70.269315 19.785808 69.888238 20.045573 69.572266 20.382812 C 69.259332 20.717014 69.038845 21.081598 68.908203 21.476562 C 68.77756 21.871529 68.710937 22.296224 68.710938 22.751953 C 68.710938 23.107422 68.77756 23.50217 68.908203 23.933594 C 69.041883 24.365017 69.253255 24.744141 69.544922 25.072266 C 69.839627 25.400391 70.195095 25.647352 70.611328 25.814453 C 71.027561 25.978515 71.48329 26.060547 71.978516 26.060547 C 72.6773 26.060547 73.306207 25.909288 73.865234 25.605469 C 74.4273 25.301649 74.859375 24.876953 75.160156 24.330078 C 75.460937 23.783203 75.611328 23.165148 75.611328 22.478516 C 75.611328 21.503256 75.305121 20.735893 74.691406 20.173828 C 74.077691 19.608724 73.252821 19.326172 72.216797 19.326172 z M 37.880859 19.443359 L 35.748047 19.490234 C 35.556641 19.490234 35.199435 19.477432 34.673828 19.453125 L 34.636719 19.484375 L 34.636719 19.712891 L 34.673828 19.744141 L 35.019531 19.771484 C 35.125869 19.783638 35.199654 19.800133 35.242188 19.818359 C 35.287761 19.833553 35.319664 19.852646 35.337891 19.876953 C 35.359157 19.901256 35.377385 19.94314 35.392578 20.003906 C 35.407778 20.06467 35.419715 20.167752 35.425781 20.310547 C 35.431848 20.450304 35.433594 20.632596 35.433594 20.857422 L 35.439453 21.890625 L 35.439453 23.564453 C 35.439453 23.831814 35.430336 24.220052 35.412109 24.730469 C 35.396923 25.237845 35.375003 25.503037 35.347656 25.527344 C 35.32335 25.548611 35.222222 25.60612 35.042969 25.697266 L 35.005859 25.742188 L 35.005859 25.892578 L 35.042969 25.929688 C 35.340712 25.90538 35.593099 25.892578 35.802734 25.892578 C 35.872612 25.892578 36.01671 25.896277 36.232422 25.902344 C 36.888672 25.92057 37.335287 25.929688 37.572266 25.929688 C 37.924696 25.929687 38.268229 25.897784 38.605469 25.833984 C 38.942708 25.767144 39.27908 25.63585 39.613281 25.441406 C 39.950521 25.246962 40.250434 24.991753 40.511719 24.675781 C 40.776042 24.356771 40.978299 23.996745 41.121094 23.595703 C 41.263889 23.194662 41.335937 22.789062 41.335938 22.378906 C 41.335937 21.956598 41.257595 21.560113 41.099609 21.189453 C 40.944661 20.815756 40.713976 20.488498 40.410156 20.208984 C 40.109375 19.926432 39.765842 19.729601 39.376953 19.617188 C 38.988064 19.501736 38.488498 19.443359 37.880859 19.443359 z M 79.220703 19.449219 C 79.132596 19.449219 78.900174 19.454644 78.523438 19.466797 C 78.167969 19.48199 77.84809 19.490234 77.5625 19.490234 C 77.352865 19.490234 76.865234 19.477432 76.099609 19.453125 L 76.0625 19.484375 L 76.0625 19.712891 L 76.099609 19.744141 C 76.421657 19.756294 76.623047 19.773655 76.705078 19.794922 C 76.787107 19.816189 76.841794 19.843533 76.869141 19.876953 C 76.899521 19.910373 76.92144 19.977865 76.933594 20.078125 C 76.948754 20.178386 76.95787 20.401693 76.960938 20.748047 L 76.96875 21.636719 L 76.96875 23.746094 L 76.964844 24.707031 C 76.961804 25.032118 76.949001 25.241753 76.927734 25.335938 C 76.909508 25.430124 76.884983 25.493056 76.851562 25.523438 C 76.82118 25.550784 76.758246 25.57357 76.664062 25.591797 C 76.569879 25.610024 76.382161 25.624565 76.099609 25.636719 L 76.0625 25.664062 L 76.0625 25.892578 L 76.099609 25.929688 C 76.865234 25.90538 77.299045 25.892578 77.402344 25.892578 C 77.499566 25.892578 77.936198 25.905381 78.710938 25.929688 L 78.746094 25.892578 L 78.746094 25.664062 L 78.710938 25.636719 C 78.388889 25.624565 78.185547 25.609157 78.103516 25.587891 C 78.021483 25.563584 77.965927 25.53342 77.935547 25.5 C 77.908207 25.466579 77.886287 25.401041 77.871094 25.300781 C 77.855934 25.200521 77.846817 24.978081 77.84375 24.634766 L 77.839844 23.746094 L 77.839844 21.636719 C 77.839844 20.740451 77.853513 20.175347 77.880859 19.941406 C 78.212023 19.838108 78.516493 19.785156 78.792969 19.785156 C 79.300347 19.785156 79.678603 19.908204 79.927734 20.154297 C 80.179905 20.400391 80.304688 20.731337 80.304688 21.144531 C 80.304688 21.554687 80.184462 21.891927 79.941406 22.15625 C 79.701389 22.417535 79.382378 22.546875 78.984375 22.546875 C 78.84158 22.546875 78.655599 22.52235 78.427734 22.470703 L 78.386719 22.515625 L 78.464844 22.792969 C 78.695746 22.835502 78.905382 22.857422 79.09375 22.857422 C 79.34592 22.857422 79.588324 22.820095 79.822266 22.744141 C 80.056206 22.665148 80.28776 22.534723 80.515625 22.355469 C 80.74349 22.176215 80.921224 21.960286 81.048828 21.705078 C 81.176432 21.44987 81.240234 21.185547 81.240234 20.912109 C 81.240234 20.580946 81.149088 20.298394 80.966797 20.064453 C 80.784505 19.830512 80.55295 19.668185 80.273438 19.580078 C 79.996961 19.49197 79.64605 19.449219 79.220703 19.449219 z M 61.984375 19.453125 L 61.949219 19.484375 L 61.949219 19.712891 L 61.984375 19.744141 C 62.306424 19.756294 62.509766 19.773655 62.591797 19.794922 C 62.673826 19.816189 62.728513 19.843533 62.755859 19.876953 C 62.786239 19.910373 62.806206 19.977865 62.818359 20.078125 C 62.833519 20.178386 62.842636 20.401693 62.845703 20.748047 L 62.855469 21.636719 L 62.855469 23.746094 L 62.851562 24.707031 C 62.848523 25.032118 62.83572 25.241753 62.814453 25.335938 C 62.796226 25.430124 62.769748 25.493058 62.736328 25.523438 C 62.705946 25.550784 62.644965 25.57357 62.550781 25.591797 C 62.456597 25.610024 62.266927 25.624565 61.984375 25.636719 L 61.949219 25.664062 L 61.949219 25.892578 L 61.984375 25.929688 C 62.759114 25.90538 63.19488 25.892578 63.289062 25.892578 C 63.41059 25.892578 63.57921 25.896277 63.794922 25.902344 C 64.314451 25.92057 64.58051 25.929688 64.595703 25.929688 L 64.632812 25.892578 L 64.632812 25.664062 L 64.595703 25.636719 C 64.273654 25.624565 64.072266 25.609157 63.990234 25.587891 C 63.908202 25.563584 63.852646 25.53342 63.822266 25.5 C 63.794926 25.466579 63.773006 25.401041 63.757812 25.300781 C 63.742652 25.200521 63.733535 24.978081 63.730469 24.634766 L 63.726562 23.746094 L 63.726562 22.775391 C 65.288195 24.203342 66.17231 25.018229 66.378906 25.21875 C 66.588542 25.419271 66.830946 25.648872 67.107422 25.910156 C 67.487196 25.898003 67.73329 25.892578 67.845703 25.892578 C 68.034071 25.892578 68.216363 25.898003 68.392578 25.910156 L 68.423828 25.875 L 68.423828 25.683594 L 68.392578 25.646484 C 68.225477 25.640411 68.115234 25.618491 68.060547 25.582031 C 68.008898 25.545573 67.762804 25.322265 67.322266 24.912109 L 64.578125 22.375 L 66.423828 20.6875 C 66.682075 20.450521 66.909939 20.252822 67.107422 20.091797 C 67.307943 19.927733 67.459201 19.829208 67.5625 19.798828 C 67.665799 19.765408 67.860026 19.75 68.142578 19.75 L 68.177734 19.712891 L 68.177734 19.498047 L 68.132812 19.457031 C 67.713544 19.466145 67.472876 19.470703 67.412109 19.470703 C 67.138672 19.470703 66.887153 19.465278 66.65625 19.453125 L 66.611328 19.490234 L 66.611328 19.785156 C 66.568793 19.848958 66.436632 19.993056 66.214844 20.214844 L 65.375 21.052734 C 65.03776 21.389974 64.489148 21.90408 63.726562 22.59375 L 63.726562 21.636719 L 63.734375 20.587891 C 63.734375 20.369141 63.742619 20.199653 63.757812 20.078125 C 63.776044 19.953559 63.811635 19.873264 63.863281 19.839844 C 63.914931 19.806424 63.996962 19.783638 64.109375 19.771484 C 64.224826 19.759324 64.386068 19.750207 64.595703 19.744141 L 64.632812 19.712891 L 64.632812 19.484375 L 64.595703 19.453125 C 63.82704 19.477432 63.392361 19.490234 63.289062 19.490234 C 63.173611 19.490234 62.928384 19.482856 62.554688 19.470703 L 61.984375 19.453125 z M 41.982422 19.466797 L 41.947266 19.507812 L 41.947266 19.722656 L 41.982422 19.757812 C 42.216363 19.760852 42.383246 19.773655 42.480469 19.794922 C 42.577691 19.813151 42.652345 19.859592 42.707031 19.935547 C 42.764758 20.008464 42.794922 20.122396 42.794922 20.277344 L 42.794922 23.960938 C 42.794922 24.103732 42.787544 24.340712 42.775391 24.671875 C 42.766277 25.003038 42.756294 25.21441 42.744141 25.308594 C 42.735027 25.40278 42.713106 25.471139 42.679688 25.513672 C 42.649306 25.556212 42.57921 25.587242 42.466797 25.605469 C 42.357422 25.623669 42.208767 25.633652 42.023438 25.636719 L 41.982422 25.673828 L 41.982422 25.882812 L 42.023438 25.923828 C 42.363715 25.902561 42.7602 25.892578 43.212891 25.892578 C 43.565321 25.892578 43.82053 25.902561 43.978516 25.923828 L 44.015625 25.888672 L 44.015625 25.673828 L 43.978516 25.636719 C 43.726346 25.633685 43.560547 25.62001 43.478516 25.595703 C 43.399524 25.571403 43.346572 25.546878 43.322266 25.519531 C 43.297966 25.489149 43.278865 25.43533 43.263672 25.359375 C 43.248479 25.28342 43.23481 25.065538 43.222656 24.707031 C 43.213543 24.348525 43.208984 24.100693 43.208984 23.960938 L 43.208984 20.464844 L 46.298828 24.324219 L 47.269531 25.509766 L 47.59375 25.892578 C 47.967448 25.968535 48.22895 26.032338 48.380859 26.083984 C 48.374773 25.67079 48.369348 25.259765 48.363281 24.849609 L 48.359375 23.595703 L 48.359375 21.431641 C 48.359375 21.285807 48.363934 21.046007 48.373047 20.714844 C 48.3852 20.38368 48.395184 20.174045 48.404297 20.085938 C 48.41645 19.99783 48.435544 19.932292 48.462891 19.886719 C 48.490234 19.841145 48.558593 19.809242 48.667969 19.791016 C 48.777343 19.769776 48.932292 19.756973 49.132812 19.753906 L 49.169922 19.716797 L 49.169922 19.507812 L 49.128906 19.466797 C 48.940538 19.48199 48.638889 19.490234 48.222656 19.490234 C 47.766928 19.490234 47.416016 19.48199 47.169922 19.466797 L 47.132812 19.507812 L 47.132812 19.716797 L 47.169922 19.753906 C 47.349175 19.756946 47.490451 19.76693 47.59375 19.785156 C 47.700085 19.80035 47.770181 19.825955 47.806641 19.859375 C 47.846134 19.892796 47.873479 19.957466 47.888672 20.054688 C 47.903865 20.148872 47.916668 20.375868 47.925781 20.734375 C 47.937935 21.089844 47.943359 21.322265 47.943359 21.431641 L 47.943359 24.958984 C 47.675998 24.667318 47.414497 24.35829 47.15625 24.033203 L 45.017578 21.353516 L 43.564453 19.466797 C 43.36697 19.48199 43.115451 19.490234 42.808594 19.490234 C 42.677951 19.490234 42.401693 19.48199 41.982422 19.466797 z M 30.712891 19.712891 C 31.205078 19.712891 31.652561 19.825955 32.056641 20.050781 C 32.460721 20.275607 32.773438 20.635634 32.992188 21.130859 C 33.210938 21.626085 33.320312 22.179254 33.320312 22.792969 C 33.320312 23.358073 33.224609 23.868489 33.033203 24.324219 C 32.841796 24.776909 32.560981 25.112413 32.193359 25.328125 C 31.825738 25.543836 31.406467 25.650391 30.935547 25.650391 C 30.537544 25.650391 30.182075 25.576606 29.869141 25.427734 C 29.559245 25.278863 29.284939 25.051866 29.044922 24.748047 C 28.807943 24.441189 28.629341 24.075737 28.507812 23.650391 C 28.389323 23.222005 28.330078 22.821831 28.330078 22.451172 C 28.330078 21.548828 28.54145 20.868055 28.966797 20.40625 C 29.392144 19.944445 29.974609 19.712891 30.712891 19.712891 z M 53.029297 19.712891 C 53.521484 19.712891 53.97092 19.825955 54.375 20.050781 C 54.77908 20.275607 55.089844 20.635634 55.308594 21.130859 C 55.527344 21.626085 55.636719 22.179254 55.636719 22.792969 C 55.636719 23.358073 55.541015 23.868489 55.349609 24.324219 C 55.158203 24.776909 54.87934 25.112413 54.511719 25.328125 C 54.144097 25.543836 53.724826 25.650391 53.253906 25.650391 C 52.855903 25.650391 52.500434 25.576606 52.1875 25.427734 C 51.877604 25.278863 51.601345 25.051866 51.361328 24.748047 C 51.124349 24.441189 50.945747 24.075737 50.824219 23.650391 C 50.705729 23.222005 50.646484 22.821831 50.646484 22.451172 C 50.646484 21.548828 50.85981 20.868055 51.285156 20.40625 C 51.710504 19.944445 52.291016 19.712891 53.029297 19.712891 z M 72.042969 19.712891 C 72.535156 19.712891 72.982639 19.825955 73.386719 20.050781 C 73.790798 20.275607 74.103516 20.635634 74.322266 21.130859 C 74.541016 21.626085 74.650391 22.179254 74.650391 22.792969 C 74.650391 23.358073 74.554687 23.868489 74.363281 24.324219 C 74.171875 24.776909 73.891058 25.112413 73.523438 25.328125 C 73.155816 25.543836 72.736545 25.650391 72.265625 25.650391 C 71.867622 25.650391 71.512153 25.576606 71.199219 25.427734 C 70.889323 25.278863 70.615017 25.051866 70.375 24.748047 C 70.138021 24.441189 69.959418 24.075737 69.837891 23.650391 C 69.719401 23.222005 69.660156 22.821831 69.660156 22.451172 C 69.660156 21.548828 69.871528 20.868055 70.296875 20.40625 C 70.722222 19.944445 71.304688 19.712891 72.042969 19.712891 z M 37.498047 19.832031 C 38.48546 19.832031 39.209201 20.069011 39.667969 20.542969 C 40.126736 21.016927 40.355469 21.68316 40.355469 22.542969 C 40.355469 23.126302 40.250651 23.650391 40.041016 24.115234 C 39.83138 24.580078 39.515191 24.93099 39.089844 25.167969 C 38.667535 25.404948 38.102431 25.523437 37.394531 25.523438 C 36.990451 25.523438 36.632161 25.492407 36.322266 25.431641 C 36.304039 24.991103 36.294922 24.640191 36.294922 24.378906 L 36.287109 23.039062 L 36.287109 21.609375 C 36.287109 20.983507 36.297959 20.420138 36.322266 19.921875 C 36.699002 19.861108 37.090929 19.832031 37.498047 19.832031 z M 51 32 L 51 70 L 51 32 z M 70.462891 33.125 C 67.611328 33.125 65.339192 33.90625 63.646484 35.46875 C 61.953776 37.018229 61.107422 39.010417 61.107422 41.445312 C 61.107422 42.34375 61.250651 43.190104 61.537109 43.984375 C 61.836589 44.765625 62.227214 45.429688 62.708984 45.976562 C 63.203776 46.510417 63.815755 46.953125 64.544922 47.304688 C 65.274089 47.65625 66.003255 47.916667 66.732422 48.085938 C 67.47461 48.255209 68.496745 48.44401 69.798828 48.652344 C 71.139973 48.873698 72.149089 49.082031 72.826172 49.277344 C 73.503255 49.459635 74.102214 49.746093 74.623047 50.136719 C 75.156902 50.514323 75.567058 51.022136 75.853516 51.660156 C 76.152995 52.298177 76.302734 53.046875 76.302734 53.90625 C 76.302734 55.130208 75.996745 56.236979 75.384766 57.226562 C 74.772786 58.203125 73.913411 58.945312 72.806641 59.453125 C 71.712891 59.960938 70.475911 60.214844 69.095703 60.214844 C 68.093098 60.214844 67.097005 60.084635 66.107422 59.824219 C 65.13086 59.563802 64.343099 59.231771 63.744141 58.828125 C 63.158203 58.411458 62.80664 58.020833 62.689453 57.65625 C 62.585288 57.278646 62.500654 56.25651 62.435547 54.589844 L 62.279297 54.433594 L 61.322266 54.433594 L 61.166016 54.589844 C 61.100912 57.597656 61.003256 59.511719 60.873047 60.332031 L 60.990234 60.585938 C 63.021484 61.549479 65.384765 62.03125 68.080078 62.03125 C 71.296223 62.03125 74.030598 61.106771 76.283203 59.257812 C 78.548828 57.408854 79.681641 55.097656 79.681641 52.324219 C 79.681641 50.904947 79.36263 49.69401 78.724609 48.691406 C 78.099609 47.688802 77.259765 46.959636 76.205078 46.503906 C 75.163411 46.035156 73.490235 45.638021 71.185547 45.3125 C 69.50586 45.065104 68.347005 44.856771 67.708984 44.6875 C 67.083984 44.518229 66.530599 44.264323 66.048828 43.925781 C 65.580078 43.574219 65.195964 43.105469 64.896484 42.519531 C 64.597005 41.920573 64.447266 41.236979 64.447266 40.46875 C 64.447266 39.479167 64.694661 38.509114 65.189453 37.558594 C 65.684244 36.608072 66.413411 35.911458 67.376953 35.46875 C 68.340494 35.026041 69.375651 34.804688 70.482422 34.804688 C 71.810547 34.804688 73.041015 35.104166 74.173828 35.703125 C 75.306637 36.302083 75.899085 36.803385 75.951172 37.207031 C 76.003257 37.610677 76.042319 38.59375 76.068359 40.15625 L 76.224609 40.292969 L 77.240234 40.292969 L 77.416016 40.136719 C 77.48112 37.923177 77.656901 36.217448 77.943359 35.019531 L 77.806641 34.785156 C 76.712891 34.238282 75.495443 33.828125 74.154297 33.554688 C 72.826172 33.26823 71.595703 33.125 70.462891 33.125 z M 32.810547 33.244141 C 27.84961 33.244141 23.826172 34.572266 20.740234 37.228516 C 17.667318 39.884766 16.130859 43.465494 16.130859 47.970703 C 16.130859 50.926432 16.814453 53.478515 18.181641 55.626953 C 19.548828 57.77539 21.397786 59.396484 23.728516 60.490234 C 26.059245 61.583984 28.669922 62.130859 31.560547 62.130859 C 35.323568 62.130859 38.988933 61.447265 42.556641 60.080078 L 42.673828 59.884766 C 42.530599 58.556641 42.458984 57.326172 42.458984 56.193359 C 42.458984 55.190755 42.485023 54.344402 42.537109 53.654297 C 42.602216 52.951172 42.654299 52.560547 42.693359 52.482422 C 42.732422 52.404297 42.869141 52.29362 43.103516 52.150391 L 44.060547 51.583984 L 44.138672 51.349609 L 44.138672 50.763672 L 43.943359 50.607422 C 42.511067 50.685547 41.423828 50.724609 40.681641 50.724609 C 39.392578 50.724609 37.725911 50.69206 35.681641 50.626953 L 34.490234 50.587891 L 34.314453 50.763672 L 34.314453 51.623047 L 34.490234 51.798828 C 36.195964 51.824869 37.302735 51.889974 37.810547 51.994141 C 38.33138 52.098307 38.656901 52.280599 38.787109 52.541016 C 38.917317 52.788412 38.982422 53.426432 38.982422 54.455078 L 38.982422 56.623047 C 38.982422 57.886068 38.923828 58.725911 38.806641 59.142578 C 38.077474 59.533203 37.146485 59.839193 36.013672 60.060547 C 34.893881 60.26888 33.79362 60.373047 32.712891 60.373047 C 30.225911 60.373047 28.044922 59.79362 26.169922 58.634766 C 24.294922 57.475912 22.85612 55.867839 21.853516 53.810547 C 20.850912 51.740235 20.349609 49.507161 20.349609 47.111328 C 20.349609 44.793619 20.811849 42.690755 21.736328 40.802734 C 22.673828 38.901692 24.060547 37.45638 25.896484 36.466797 C 27.732422 35.477214 29.841797 34.982422 32.224609 34.982422 C 33.344401 34.982422 34.392578 35.080078 35.369141 35.275391 C 36.345703 35.457683 37.315756 35.757161 38.279297 36.173828 C 39.25586 36.577473 39.861328 36.876953 40.095703 37.072266 C 40.33008 37.254558 40.466799 37.404297 40.505859 37.521484 C 40.557945 37.638672 40.603518 38.035807 40.642578 38.712891 L 40.740234 40.783203 L 40.896484 40.939453 L 41.794922 40.939453 L 41.951172 40.802734 C 42.263672 38.016276 42.537109 36.186848 42.771484 35.314453 L 42.634766 35.099609 C 39.73112 33.86263 36.45638 33.244141 32.810547 33.244141 z M 41.107422 74.1875 C 40.548395 74.1875 40.047092 74.279514 39.603516 74.464844 C 39.159939 74.647135 38.778863 74.906901 38.462891 75.244141 C 38.149957 75.578341 37.92947 75.942925 37.798828 76.337891 C 37.668185 76.732856 37.601562 77.157553 37.601562 77.613281 C 37.601562 77.96875 37.668185 78.363498 37.798828 78.794922 C 37.932509 79.226345 38.143881 79.605469 38.435547 79.933594 C 38.730252 80.261718 39.085721 80.508681 39.501953 80.675781 C 39.918186 80.839844 40.373915 80.921875 40.869141 80.921875 C 41.567925 80.921875 42.196832 80.770616 42.755859 80.466797 C 43.317925 80.162978 43.75 79.738281 44.050781 79.191406 C 44.351563 78.644532 44.501953 78.026476 44.501953 77.339844 C 44.501953 76.364584 44.195747 75.597222 43.582031 75.035156 C 42.968316 74.470052 42.143446 74.1875 41.107422 74.1875 z M 59.595703 74.25 C 59.3648 74.799913 59.132378 75.350478 58.898438 75.900391 L 57.658203 78.707031 L 57.179688 79.746094 C 57.027776 80.074222 56.926647 80.269318 56.875 80.330078 C 56.826387 80.387805 56.770831 80.427952 56.707031 80.449219 C 56.643229 80.467419 56.499132 80.477402 56.277344 80.480469 L 56.236328 80.517578 L 56.236328 80.753906 L 56.277344 80.791016 C 56.617621 80.766709 56.954861 80.753906 57.289062 80.753906 C 57.583768 80.753906 57.928385 80.766709 58.320312 80.791016 L 58.355469 80.753906 L 58.355469 80.517578 L 58.314453 80.480469 C 57.98329 80.477429 57.777344 80.458335 57.695312 80.421875 C 57.613281 80.385417 57.572266 80.327908 57.572266 80.251953 C 57.572266 80.154731 57.61697 80.002604 57.705078 79.792969 L 58.201172 78.625 L 60.839844 78.625 L 61.400391 80.015625 C 61.442924 80.125 61.464844 80.212457 61.464844 80.279297 C 61.464844 80.361327 61.421007 80.415146 61.335938 80.439453 C 61.250867 80.460733 61.039497 80.474402 60.699219 80.480469 L 60.662109 80.517578 L 60.662109 80.753906 L 60.699219 80.791016 C 61.203559 80.778862 61.706596 80.765193 62.210938 80.75 C 62.469183 80.75 62.759983 80.763669 63.082031 80.791016 L 63.119141 80.753906 L 63.119141 80.517578 L 63.082031 80.480469 C 62.887588 80.477429 62.760852 80.467445 62.703125 80.449219 C 62.648441 80.427952 62.602 80.397788 62.5625 80.361328 C 62.526041 80.32487 62.457682 80.205512 62.357422 80.001953 C 62.2602 79.798394 62.173612 79.610677 62.097656 79.4375 L 61.837891 78.826172 L 59.892578 74.25 L 59.595703 74.25 z M 35.136719 74.310547 C 35.048611 74.310547 34.816189 74.315972 34.439453 74.328125 C 34.083984 74.343318 33.764106 74.351562 33.478516 74.351562 C 33.26888 74.351562 32.78125 74.33876 32.015625 74.314453 L 31.978516 74.345703 L 31.978516 74.574219 L 32.015625 74.605469 C 32.337674 74.617622 32.539063 74.634983 32.621094 74.65625 C 32.703122 74.677517 32.75781 74.704861 32.785156 74.738281 C 32.815536 74.771702 32.837456 74.839193 32.849609 74.939453 C 32.864769 75.039714 32.873886 75.263021 32.876953 75.609375 L 32.884766 76.498047 L 32.884766 78.607422 L 32.880859 79.568359 C 32.877819 79.893446 32.865017 80.103082 32.84375 80.197266 C 32.825523 80.291452 32.800998 80.354386 32.767578 80.384766 C 32.737196 80.412112 32.674262 80.434898 32.580078 80.453125 C 32.485894 80.471352 32.298177 80.485894 32.015625 80.498047 L 31.978516 80.525391 L 31.978516 80.753906 L 32.015625 80.791016 C 32.78125 80.766709 33.215061 80.753906 33.318359 80.753906 C 33.415581 80.753906 33.852214 80.766709 34.626953 80.791016 L 34.662109 80.753906 L 34.662109 80.525391 L 34.626953 80.498047 C 34.304904 80.485894 34.101563 80.470485 34.019531 80.449219 C 33.937499 80.424912 33.881943 80.394748 33.851562 80.361328 C 33.824222 80.327908 33.802303 80.262369 33.787109 80.162109 C 33.771949 80.061849 33.762832 79.83941 33.759766 79.496094 L 33.755859 78.607422 L 33.755859 76.498047 C 33.755859 75.60178 33.769528 75.036676 33.796875 74.802734 C 34.128038 74.699436 34.432509 74.646484 34.708984 74.646484 C 35.216363 74.646484 35.594618 74.769532 35.84375 75.015625 C 36.09592 75.261719 36.220703 75.592665 36.220703 76.005859 C 36.220703 76.416015 36.100478 76.753255 35.857422 77.017578 C 35.617405 77.278863 35.298394 77.408203 34.900391 77.408203 C 34.757596 77.408203 34.571615 77.383678 34.34375 77.332031 L 34.302734 77.376953 L 34.380859 77.654297 C 34.611762 77.69683 34.821398 77.71875 35.009766 77.71875 C 35.261936 77.71875 35.504341 77.681423 35.738281 77.605469 C 35.972222 77.526475 36.203776 77.39605 36.431641 77.216797 C 36.659505 77.037544 36.83724 76.821614 36.964844 76.566406 C 37.092448 76.311198 37.15625 76.046875 37.15625 75.773438 C 37.15625 75.442274 37.065104 75.159723 36.882812 74.925781 C 36.700522 74.691841 36.468966 74.529514 36.189453 74.441406 C 35.912977 74.353299 35.562065 74.310547 35.136719 74.310547 z M 48.107422 74.310547 C 48.0102 74.310547 47.852431 74.312293 47.636719 74.318359 C 47.053385 74.339626 46.591362 74.351563 46.248047 74.351562 C 45.938151 74.351562 45.505208 74.33876 44.949219 74.314453 L 44.912109 74.345703 L 44.912109 74.574219 L 44.949219 74.605469 C 45.271267 74.617622 45.472656 74.634983 45.554688 74.65625 C 45.636716 74.677517 45.691403 74.704861 45.71875 74.738281 C 45.74913 74.771702 45.77105 74.839193 45.783203 74.939453 C 45.798363 75.039714 45.80748 75.263021 45.810547 75.609375 L 45.818359 76.498047 L 45.818359 78.607422 L 45.814453 79.568359 C 45.811413 79.893446 45.79861 80.103082 45.777344 80.197266 C 45.759117 80.291452 45.734592 80.354386 45.701172 80.384766 C 45.67079 80.412112 45.607856 80.434898 45.513672 80.453125 C 45.419488 80.471352 45.231771 80.485894 44.949219 80.498047 L 44.912109 80.525391 L 44.912109 80.753906 L 44.949219 80.791016 C 45.723958 80.766709 46.157769 80.753906 46.251953 80.753906 C 46.37348 80.753906 46.542101 80.757605 46.757812 80.763672 C 47.277341 80.781899 47.545354 80.791016 47.560547 80.791016 L 47.595703 80.753906 L 47.595703 80.525391 L 47.560547 80.498047 C 47.238498 80.485894 47.035156 80.470485 46.953125 80.449219 C 46.871092 80.424912 46.815536 80.394748 46.785156 80.361328 C 46.757816 80.327908 46.735896 80.262369 46.720703 80.162109 C 46.705543 80.061849 46.696426 79.83941 46.693359 79.496094 L 46.689453 78.607422 L 46.689453 76.498047 C 46.689453 75.425565 46.712239 74.855902 46.757812 74.789062 C 47.040364 74.700955 47.341146 74.65625 47.660156 74.65625 C 48.115886 74.65625 48.47678 74.7602 48.744141 74.966797 C 49.011502 75.170356 49.146484 75.472005 49.146484 75.873047 C 49.146484 76.319661 48.996961 76.669705 48.699219 76.921875 C 48.401475 77.174045 47.990451 77.298828 47.464844 77.298828 C 47.376736 77.298828 47.25369 77.29427 47.095703 77.285156 L 47.048828 77.427734 C 47.595703 78.050564 48.131728 78.725911 48.654297 79.455078 C 49.10395 80.083984 49.432943 80.526042 49.642578 80.78125 C 49.897786 80.763023 50.133897 80.753906 50.349609 80.753906 C 50.55013 80.753906 50.723307 80.763023 50.869141 80.78125 L 50.910156 80.740234 L 50.910156 80.525391 L 50.873047 80.490234 C 50.76367 80.490234 50.682506 80.485676 50.630859 80.476562 C 50.582248 80.467444 50.523004 80.441837 50.453125 80.402344 C 50.383247 80.359809 50.228299 80.182075 49.988281 79.869141 C 49.748264 79.553169 49.524088 79.255208 49.314453 78.972656 L 48.667969 78.115234 C 48.44618 77.823568 48.292101 77.618489 48.207031 77.5 C 48.665799 77.411893 49.025825 77.280599 49.287109 77.107422 C 49.548394 76.931207 49.745226 76.720703 49.878906 76.474609 C 50.012586 76.228515 50.080078 75.977864 50.080078 75.722656 C 50.080078 75.339844 49.943359 75.008029 49.669922 74.728516 C 49.396485 74.449002 48.876085 74.310547 48.107422 74.310547 z M 51.173828 74.314453 L 51.132812 74.355469 C 51.154086 74.577257 51.167761 75.054905 51.173828 75.787109 L 51.210938 75.822266 L 51.419922 75.822266 L 51.460938 75.78125 L 51.505859 75.363281 C 51.533206 75.086808 51.56337 74.923613 51.59375 74.875 C 51.62717 74.823353 51.745659 74.79145 51.949219 74.779297 C 52.152777 74.767144 52.394314 74.761719 52.673828 74.761719 L 53.351562 74.761719 C 53.37587 75.506074 53.388672 75.902559 53.388672 75.951172 L 53.388672 78.607422 L 53.378906 79.568359 C 53.378906 79.893446 53.368923 80.103082 53.347656 80.197266 C 53.32639 80.291452 53.299045 80.354386 53.265625 80.384766 C 53.235243 80.412112 53.172309 80.434898 53.078125 80.453125 C 52.986979 80.471352 52.799262 80.485894 52.513672 80.498047 L 52.476562 80.525391 L 52.476562 80.753906 L 52.513672 80.791016 C 53.282335 80.766709 53.715278 80.753906 53.8125 80.753906 C 53.903646 80.753906 54.337457 80.766709 55.115234 80.791016 L 55.148438 80.753906 L 55.148438 80.525391 L 55.115234 80.498047 C 54.790148 80.485894 54.587891 80.470485 54.505859 80.449219 C 54.423827 80.424912 54.366318 80.397566 54.335938 80.367188 C 54.308597 80.333766 54.28863 80.266276 54.273438 80.166016 C 54.261311 80.062717 54.253067 79.83941 54.25 79.496094 L 54.240234 78.607422 L 54.240234 75.951172 C 54.240234 75.844835 54.253037 75.44835 54.277344 74.761719 L 55.138672 74.761719 C 55.345269 74.761719 55.532119 74.76801 55.699219 74.783203 C 55.866321 74.798396 55.965714 74.819443 55.996094 74.84375 C 56.026474 74.86502 56.04644 74.901478 56.058594 74.953125 C 56.073787 75.001736 56.094834 75.138455 56.119141 75.363281 L 56.167969 75.78125 L 56.205078 75.822266 L 56.419922 75.822266 L 56.455078 75.787109 C 56.455078 75.106554 56.468747 74.628906 56.496094 74.355469 L 56.455078 74.314453 C 55.947699 74.33876 55.067274 74.351562 53.8125 74.351562 C 52.582032 74.351562 51.702474 74.33876 51.173828 74.314453 z M 63.542969 74.314453 L 63.505859 74.345703 L 63.505859 74.574219 L 63.542969 74.605469 C 63.865017 74.617622 64.066406 74.634983 64.148438 74.65625 C 64.230466 74.677517 64.285153 74.704861 64.3125 74.738281 C 64.34288 74.771702 64.3648 74.839193 64.376953 74.939453 C 64.392113 75.039714 64.40123 75.263021 64.404297 75.609375 L 64.412109 76.498047 L 64.412109 78.453125 C 64.412109 78.975694 64.402126 79.422309 64.380859 79.792969 C 64.362626 80.163629 64.344399 80.359593 64.326172 80.380859 C 64.307943 80.402127 64.203993 80.461372 64.015625 80.558594 L 63.980469 80.603516 L 63.980469 80.753906 L 64.015625 80.791016 C 64.331597 80.766709 64.641493 80.753906 64.945312 80.753906 L 66.277344 80.763672 C 67.216146 80.763672 67.973525 80.772789 68.550781 80.791016 L 68.587891 80.753906 C 68.587891 80.538195 68.59874 80.255643 68.623047 79.90625 C 68.650387 79.556858 68.676865 79.320747 68.701172 79.199219 L 68.669922 79.164062 L 68.445312 79.164062 L 68.404297 79.199219 C 68.401257 79.241753 68.368488 79.40039 68.304688 79.673828 C 68.243922 79.947265 68.197482 80.121311 68.164062 80.197266 C 67.993925 80.267146 67.816189 80.311851 67.630859 80.330078 C 67.448568 80.348305 66.98546 80.357422 66.244141 80.357422 L 65.314453 80.357422 L 65.292969 79.568359 C 65.286902 79.367839 65.283203 79.016059 65.283203 78.511719 L 65.283203 76.498047 L 65.292969 75.449219 C 65.292969 75.230469 65.29926 75.060981 65.314453 74.939453 C 65.332684 74.814887 65.368275 74.734592 65.419922 74.701172 C 65.471571 74.667752 65.553602 74.644966 65.666016 74.632812 C 65.781467 74.620653 65.944662 74.611535 66.154297 74.605469 L 66.189453 74.574219 L 66.189453 74.345703 L 66.154297 74.314453 C 65.385634 74.33876 64.949002 74.351562 64.845703 74.351562 C 64.730252 74.351562 64.296441 74.33876 63.542969 74.314453 z M 40.933594 74.574219 C 41.425781 74.574219 41.873264 74.687283 42.277344 74.912109 C 42.681424 75.136936 42.994141 75.496962 43.212891 75.992188 C 43.431641 76.487413 43.541016 77.040582 43.541016 77.654297 C 43.541016 78.219401 43.445312 78.729818 43.253906 79.185547 C 43.0625 79.638238 42.781684 79.973742 42.414062 80.189453 C 42.046442 80.405165 41.62717 80.511719 41.15625 80.511719 C 40.758247 80.511719 40.402778 80.437934 40.089844 80.289062 C 39.779948 80.140191 39.505642 79.913194 39.265625 79.609375 C 39.028646 79.302518 38.850044 78.937065 38.728516 78.511719 C 38.610026 78.083333 38.550781 77.68316 38.550781 77.3125 C 38.550781 76.410157 38.762153 75.729383 39.1875 75.267578 C 39.612847 74.805773 40.195313 74.574219 40.933594 74.574219 z M 59.517578 75.486328 L 60.662109 78.234375 L 58.355469 78.234375 L 59.517578 75.486328 z " />
          </g>
        </g>
        <g
           aria-label="G"
           id="text47"
           style="font-size:40px;line-height:1.25;font-family:sans-serif" />
        <g
           aria-label="S"
           id="text51"
           style="font-size:16px;line-height:1.25;font-family:sans-serif" />
      </g>
    </g>
  </g>
</svg>
