<?xml version="1.0" encoding="UTF-8" standalone="no"?>
<svg
   xmlns:dc="http://purl.org/dc/elements/1.1/"
   xmlns:cc="http://creativecommons.org/ns#"
   xmlns:rdf="http://www.w3.org/1999/02/22-rdf-syntax-ns#"
   xmlns:svg="http://www.w3.org/2000/svg"
   xmlns="http://www.w3.org/2000/svg"
   viewBox="0 0 101 100"
   version="1.1"
   id="svg10">
  <metadata
     id="metadata16">
    <rdf:RDF>
      <cc:Work
         rdf:about="">
        <dc:format>image/svg+xml</dc:format>
        <dc:type
           rdf:resource="http://purl.org/dc/dcmitype/StillImage" />
        <dc:title></dc:title>
      </cc:Work>
    </rdf:RDF>
  </metadata>
  <defs
     id="defs14" />
  <g
     fill="#666"
     fill-rule="evenodd"
     id="g8">
    <text
       xml:space="preserve"
       style="font-size:16px;line-height:1.25;font-family:'Palatino Linotype';-inkscape-font-specification:'Palatino Linotype';font-weight:normal;font-style:normal;font-stretch:normal;font-variant:normal;"
       x="32.738094"
       y="86.805557"
       id="text39"><tspan
         id="tspan37"
         x="32.738094"
         y="86.805557" /></text>
    <g
       id="g975">
      <path
         d="M1.804 98.431h97.213V1.218H1.804v97.213zm-1 1h99.213V.218H.804v99.213z"
         id="path2" />
      <g
         id="g910">
        <g
           aria-label="GODNOSKOP"
           id="text24"
           style="font-size:9.33333px;line-height:1.25;font-family:sans-serif">
          <path
             d="m 26.866503,23.409133 v 0.136719 l -0.01823,0.05469 -0.223307,0.132161 q -0.08203,0.05013 -0.0957,0.07747 -0.01367,0.02734 -0.03646,0.273437 -0.01823,0.241537 -0.01823,0.592448 0,0.396484 0.05013,0.861328 l -0.02734,0.04557 q -1.248697,0.478515 -2.565754,0.478515 -1.011718,0 -1.827473,-0.382812 -0.815755,-0.382812 -1.294271,-1.134765 -0.478515,-0.751953 -0.478515,-1.786458 0,-1.576822 1.07552,-2.50651 1.080078,-0.929687 2.816406,-0.929687 1.276041,0 2.292317,0.432943 l 0.0319,0.05013 q -0.08203,0.305338 -0.191407,1.280599 l -0.03646,0.0319 h -0.209635 l -0.03646,-0.03646 -0.02279,-0.483073 q -0.01367,-0.236979 -0.0319,-0.277994 -0.01367,-0.04102 -0.0957,-0.104818 -0.08203,-0.06836 -0.423828,-0.209635 -0.33724,-0.145834 -0.679036,-0.209636 -0.341797,-0.06836 -0.733724,-0.06836 -0.833984,0 -1.476562,0.346354 -0.642578,0.346354 -0.970703,1.011719 -0.323567,0.660807 -0.323567,1.472004 0,0.838542 0.350911,1.563151 0.350911,0.720052 1.007161,1.12565 0.65625,0.405599 1.526692,0.405599 0.378255,0 0.770182,-0.07292 0.396485,-0.07747 0.651693,-0.214193 0.04102,-0.145833 0.04102,-0.58789 v -0.50586 q 0,-0.360026 -0.04557,-0.446614 -0.04557,-0.09115 -0.227864,-0.127604 -0.177734,-0.03646 -0.774739,-0.04557 l -0.04102,-0.04102 v -0.200521 l 0.04102,-0.04102 0.277994,0.0091 q 0.715495,0.02279 1.166667,0.02279 0.259765,0 0.761067,-0.02734 z"
             style="font-style:normal;font-variant:normal;font-weight:normal;font-stretch:normal;font-size:9.33333px;font-family:'Palatino Linotype';-inkscape-font-specification:'Palatino Linotype'"
             id="path912" />
          <path
             d="m 27.381477,22.752884 q 0,-0.683594 0.195963,-1.276042 0.195964,-0.592447 0.665365,-1.093749 0.473958,-0.505859 1.139322,-0.779297 0.665365,-0.277994 1.503906,-0.277994 1.554036,0 2.474608,0.847656 0.920573,0.843098 0.920573,2.305988 0,1.029948 -0.451172,1.85026 -0.451171,0.820312 -1.29427,1.276041 -0.838541,0.455729 -1.886718,0.455729 -0.742838,0 -1.367187,-0.246093 -0.624349,-0.250651 -1.066406,-0.742839 -0.4375,-0.492187 -0.638021,-1.139322 -0.195963,-0.647135 -0.195963,-1.180338 z m 0.947916,-0.300781 q 0,0.555989 0.177734,1.198567 0.182292,0.63802 0.537761,1.098307 0.360026,0.455729 0.824869,0.679036 0.469401,0.223307 1.066406,0.223307 0.70638,0 1.257812,-0.323567 0.551432,-0.323568 0.838542,-1.002604 0.287109,-0.683594 0.287109,-1.53125 0,-0.920572 -0.328125,-1.663411 -0.328125,-0.742838 -0.934245,-1.080077 -0.606119,-0.33724 -1.3444,-0.33724 -1.107422,0 -1.745442,0.692708 -0.638021,0.692708 -0.638021,2.046224 z m 2.433593,-3.335937 z m 0.02279,7.050128 z"
             style="font-style:normal;font-variant:normal;font-weight:normal;font-stretch:normal;font-size:9.33333px;font-family:'Palatino Linotype';-inkscape-font-specification:'Palatino Linotype'"
             id="path914" />
          <path
             d="m 34.636682,19.485307 0.03646,-0.0319 q 0.788411,0.03646 1.07552,0.03646 l 2.132812,-0.04557 q 0.911458,0 1.494791,0.173177 0.583333,0.16862 1.034505,0.592448 0.455729,0.419271 0.688151,0.979817 0.236979,0.55599 0.236979,1.189453 0,0.615234 -0.214193,1.216796 -0.214192,0.601563 -0.610677,1.080078 -0.391927,0.473958 -0.897786,0.765625 -0.501302,0.291666 -1.007161,0.391927 -0.505859,0.0957 -1.034505,0.0957 -0.355468,0 -1.339843,-0.02734 -0.323568,-0.0091 -0.428385,-0.0091 -0.314453,0 -0.761068,0.03646 l -0.03646,-0.03646 v -0.150391 l 0.03646,-0.04557 q 0.26888,-0.136719 0.305339,-0.16862 0.04102,-0.03646 0.0638,-0.797525 0.02734,-0.765625 0.02734,-1.166667 v -1.672525 l -0.0046,-1.034505 q 0,-0.337239 -0.0091,-0.546875 -0.0091,-0.214192 -0.0319,-0.305338 -0.02279,-0.09115 -0.05469,-0.127604 -0.02734,-0.03646 -0.0957,-0.05925 -0.0638,-0.02734 -0.223307,-0.04557 l -0.346354,-0.02734 -0.03646,-0.0319 z m 1.686198,5.947263 q 0.464843,0.09115 1.070963,0.09115 1.061849,0 1.695312,-0.355469 0.638021,-0.355468 0.952474,-1.052734 0.314453,-0.697265 0.314453,-1.572265 0,-1.289713 -0.688151,-2.00065 -0.688151,-0.710937 -2.16927,-0.710937 -0.610677,0 -1.175781,0.09115 -0.03646,0.747395 -0.03646,1.686197 v 1.430989 l 0.0091,1.339843 q 0,0.391927 0.02734,1.052734 z"
             style="font-style:normal;font-variant:normal;font-weight:normal;font-stretch:normal;font-size:9.33333px;font-family:'Palatino Linotype';-inkscape-font-specification:'Palatino Linotype'"
             id="path916" />
          <path
             d="m 42.02405,25.924758 -0.04102,-0.04102 v -0.209635 l 0.04102,-0.03646 q 0.277994,-0.0046 0.442057,-0.0319 0.16862,-0.02734 0.214192,-0.09115 0.05013,-0.0638 0.0638,-0.205079 0.01823,-0.141276 0.0319,-0.63802 0.01823,-0.496745 0.01823,-0.710937 v -3.682291 q 0,-0.232422 -0.08659,-0.341797 -0.08203,-0.113932 -0.227864,-0.141276 -0.145834,-0.0319 -0.496745,-0.03646 l -0.03646,-0.03646 v -0.214193 l 0.03646,-0.04101 q 0.628906,0.02279 0.82487,0.02279 0.460286,0 0.75651,-0.02279 l 1.453775,1.886718 2.137369,2.679686 q 0.38737,0.48763 0.788412,0.92513 V 21.43127 q 0,-0.164063 -0.01823,-0.697266 -0.01367,-0.53776 -0.03646,-0.679036 -0.02279,-0.145833 -0.08203,-0.195964 -0.05469,-0.05013 -0.214193,-0.07292 -0.154948,-0.02734 -0.423828,-0.0319 l -0.03646,-0.03646 v -0.209635 l 0.03646,-0.04101 q 0.369141,0.02279 1.052734,0.02279 0.624349,0 0.906901,-0.02279 l 0.04102,0.04101 v 0.209635 l -0.03646,0.03646 q -0.300781,0.0046 -0.464843,0.03646 -0.164063,0.02734 -0.205078,0.0957 -0.04102,0.06836 -0.05925,0.200521 -0.01367,0.132161 -0.0319,0.628906 -0.01367,0.496745 -0.01367,0.715495 v 2.164712 l 0.0046,1.253255 q 0.0091,0.615234 0.01823,1.235026 -0.227864,-0.07747 -0.788411,-0.191406 l -0.323567,-0.382813 -0.970703,-1.184895 -3.089843,-3.860025 v 3.495442 q 0,0.209635 0.01367,0.747395 0.01823,0.53776 0.04102,0.651693 0.02279,0.113932 0.05924,0.159505 0.03646,0.04102 0.154948,0.07747 0.123047,0.03646 0.501302,0.04101 l 0.03646,0.03646 v 0.214192 l -0.03646,0.03646 q -0.236979,-0.0319 -0.765625,-0.0319 -0.679036,0 -1.189452,0.0319 z"
             style="font-style:normal;font-variant:normal;font-weight:normal;font-stretch:normal;font-size:9.33333px;font-family:'Palatino Linotype';-inkscape-font-specification:'Palatino Linotype'"
             id="path918" />
          <path
             d="m 49.698526,22.752884 q 0,-0.683594 0.195964,-1.276042 0.195963,-0.592447 0.665364,-1.093749 0.473958,-0.505859 1.139323,-0.779297 0.665364,-0.277994 1.503905,-0.277994 1.554036,0 2.474609,0.847656 0.920573,0.843098 0.920573,2.305988 0,1.029948 -0.451172,1.85026 -0.451172,0.820312 -1.294271,1.276041 -0.838541,0.455729 -1.886718,0.455729 -0.742838,0 -1.367187,-0.246093 -0.624348,-0.250651 -1.066406,-0.742839 -0.437499,-0.492187 -0.63802,-1.139322 -0.195964,-0.647135 -0.195964,-1.180338 z m 0.947917,-0.300781 q 0,0.555989 0.177734,1.198567 0.182292,0.63802 0.53776,1.098307 0.360026,0.455729 0.82487,0.679036 0.469401,0.223307 1.066406,0.223307 0.70638,0 1.257812,-0.323567 0.551432,-0.323568 0.838541,-1.002604 0.287109,-0.683594 0.287109,-1.53125 0,-0.920572 -0.328125,-1.663411 -0.328124,-0.742838 -0.934244,-1.080077 -0.60612,-0.33724 -1.344401,-0.33724 -1.107421,0 -1.745442,0.692708 -0.63802,0.692708 -0.63802,2.046224 z m 2.433593,-3.335937 z m 0.02279,7.050128 z"
             style="font-style:normal;font-variant:normal;font-weight:normal;font-stretch:normal;font-size:9.33333px;font-family:'Palatino Linotype';-inkscape-font-specification:'Palatino Linotype'"
             id="path920" />
          <path
             d="m 57.177041,24.325149 0.03646,-0.03646 h 0.223307 l 0.03646,0.03646 q 0.02279,0.583333 0.05924,0.715494 0.04102,0.127604 0.246094,0.273438 0.209635,0.141276 0.551432,0.232422 0.346354,0.09114 0.697265,0.09114 0.483073,0 0.865886,-0.177734 0.387369,-0.177734 0.601562,-0.519531 0.214192,-0.346354 0.214192,-0.774739 0,-0.300782 -0.104817,-0.524089 -0.100261,-0.223307 -0.287109,-0.355468 -0.182292,-0.136719 -0.419271,-0.200521 -0.236979,-0.06836 -0.70638,-0.145833 -0.455729,-0.07292 -0.715495,-0.132162 -0.255208,-0.05925 -0.510416,-0.182291 -0.255208,-0.123047 -0.428385,-0.309896 -0.16862,-0.191406 -0.273438,-0.464844 -0.10026,-0.277994 -0.10026,-0.592447 0,-0.852214 0.592447,-1.394531 0.592448,-0.546875 1.590495,-0.546875 0.396484,0 0.861328,0.10026 0.4694,0.0957 0.852213,0.28711 l 0.0319,0.05469 q -0.100261,0.419271 -0.123047,1.19401 l -0.04102,0.03646 h -0.236979 l -0.03646,-0.0319 q -0.0091,-0.546874 -0.02734,-0.68815 -0.01823,-0.141276 -0.414713,-0.350912 -0.396484,-0.209635 -0.861328,-0.209635 -0.38737,0 -0.724609,0.154948 -0.33724,0.154948 -0.510417,0.48763 -0.173177,0.332682 -0.173177,0.679036 0,0.26888 0.104818,0.478516 0.104818,0.205078 0.26888,0.328124 0.16862,0.11849 0.38737,0.177735 0.223307,0.05924 0.811197,0.145833 0.806641,0.113932 1.171224,0.277995 0.369141,0.159505 0.58789,0.510416 0.223308,0.350912 0.223308,0.847656 0,0.970703 -0.792969,1.617838 -0.788411,0.647135 -1.914062,0.647135 -0.943359,0 -1.654296,-0.337239 l -0.02734,-0.05924 q 0.04557,-0.287109 0.06836,-1.339843 z"
             style="font-style:normal;font-variant:normal;font-weight:normal;font-stretch:normal;font-size:9.33333px;font-family:'Palatino Linotype';-inkscape-font-specification:'Palatino Linotype'"
             id="path922" />
          <path
             d="m 63.725866,22.593379 q 1.143879,-1.034505 1.649739,-1.540365 0.510416,-0.510416 0.838541,-0.838541 0.332682,-0.332682 0.396484,-0.428385 v -0.296224 l 0.04557,-0.03646 q 0.346354,0.01823 0.75651,0.01823 0.09115,0 0.720052,-0.01367 l 0.04557,0.04102 v 0.214192 l -0.03646,0.03646 q -0.423828,0 -0.578776,0.05013 -0.154948,0.04557 -0.455729,0.291666 -0.296224,0.241537 -0.683594,0.597005 l -1.845702,1.686198 2.743489,2.53841 q 0.660807,0.615234 0.738281,0.669922 0.08203,0.05469 0.332682,0.0638 l 0.0319,0.03646 v 0.191406 l -0.0319,0.03646 q -0.264323,-0.01823 -0.546875,-0.01823 -0.16862,0 -0.738281,0.01823 -0.414714,-0.391927 -0.729167,-0.692708 -0.309895,-0.300781 -2.652342,-2.442708 v 0.970703 l 0.0046,0.888672 q 0.0046,0.514973 0.02734,0.665364 0.02279,0.15039 0.0638,0.200521 0.04557,0.05013 0.168619,0.08659 0.123047,0.0319 0.60612,0.05013 l 0.03646,0.02734 v 0.227865 l -0.03646,0.03646 q -0.02279,0 -0.802083,-0.02734 -0.323568,-0.0091 -0.505859,-0.0091 -0.141276,0 -1.303385,0.03646 l -0.03646,-0.03646 v -0.227865 l 0.03646,-0.02734 q 0.423828,-0.01823 0.565104,-0.04557 0.141276,-0.02734 0.186849,-0.06836 0.05013,-0.04557 0.07747,-0.186849 0.0319,-0.141276 0.03646,-0.628906 l 0.0046,-0.961588 v -2.110025 l -0.0091,-0.888672 q -0.0046,-0.519531 -0.02734,-0.669922 -0.01823,-0.15039 -0.0638,-0.20052 -0.04102,-0.05013 -0.164063,-0.08203 -0.123046,-0.0319 -0.606119,-0.05013 l -0.03646,-0.0319 v -0.227864 l 0.03646,-0.0319 0.569661,0.01823 q 0.560547,0.01823 0.733724,0.01823 0.154948,0 1.307942,-0.03646 l 0.03646,0.0319 v 0.227864 l -0.03646,0.0319 q -0.314453,0.0091 -0.48763,0.02734 -0.16862,0.01823 -0.246094,0.06836 -0.07747,0.05013 -0.104817,0.236979 -0.02279,0.182292 -0.02279,0.510417 l -0.0091,1.048177 z"
             style="font-style:normal;font-variant:normal;font-weight:normal;font-stretch:normal;font-size:9.33333px;font-family:'Palatino Linotype';-inkscape-font-specification:'Palatino Linotype'"
             id="path924" />
          <path
             d="m 68.711542,22.752884 q 0,-0.683594 0.195964,-1.276042 0.195963,-0.592447 0.665364,-1.093749 0.473958,-0.505859 1.139322,-0.779297 0.665365,-0.277994 1.503906,-0.277994 1.554036,0 2.474609,0.847656 0.920572,0.843098 0.920572,2.305988 0,1.029948 -0.451171,1.85026 -0.451172,0.820312 -1.294271,1.276041 -0.838541,0.455729 -1.886718,0.455729 -0.742838,0 -1.367187,-0.246093 -0.624349,-0.250651 -1.066406,-0.742839 -0.4375,-0.492187 -0.63802,-1.139322 -0.195964,-0.647135 -0.195964,-1.180338 z m 0.947916,-0.300781 q 0,0.555989 0.177735,1.198567 0.182291,0.63802 0.53776,1.098307 0.360026,0.455729 0.824869,0.679036 0.469401,0.223307 1.066406,0.223307 0.70638,0 1.257812,-0.323567 0.551433,-0.323568 0.838542,-1.002604 0.287109,-0.683594 0.287109,-1.53125 0,-0.920572 -0.328125,-1.663411 -0.328125,-0.742838 -0.934244,-1.080077 -0.60612,-0.33724 -1.344401,-0.33724 -1.107421,0 -1.745442,0.692708 -0.638021,0.692708 -0.638021,2.046224 z m 2.433593,-3.335937 z m 0.02279,7.050128 z"
             style="font-style:normal;font-variant:normal;font-weight:normal;font-stretch:normal;font-size:9.33333px;font-family:'Palatino Linotype';-inkscape-font-specification:'Palatino Linotype'"
             id="path926" />
          <path
             d="m 76.098907,19.453406 q 1.148437,0.03646 1.46289,0.03646 0.428385,0 0.961588,-0.02279 0.565104,-0.01823 0.697265,-0.01823 0.638021,0 1.052734,0.132162 0.419271,0.132161 0.692709,0.483073 0.273437,0.350911 0.273437,0.847656 0,0.410156 -0.191406,0.792968 -0.191406,0.382812 -0.533203,0.651692 -0.341797,0.268881 -0.692708,0.38737 -0.350912,0.113932 -0.729167,0.113932 -0.282552,0 -0.628906,-0.0638 l -0.07747,-0.277994 0.04102,-0.04557 q 0.341797,0.07747 0.555989,0.07747 0.597005,0 0.957031,-0.391927 0.364584,-0.396485 0.364584,-1.011719 0,-0.619791 -0.378256,-0.988932 -0.373697,-0.36914 -1.134765,-0.36914 -0.414713,0 -0.911458,0.154948 -0.04102,0.350911 -0.04102,1.695312 v 2.110025 l 0.0046,0.888672 q 0.0046,0.514973 0.02734,0.665364 0.02279,0.15039 0.0638,0.200521 0.04557,0.05013 0.168619,0.08659 0.123047,0.0319 0.60612,0.05013 l 0.03646,0.02734 v 0.227865 l -0.03646,0.03646 q -1.162109,-0.03646 -1.307942,-0.03646 -0.154948,0 -1.303385,0.03646 l -0.03646,-0.03646 v -0.227865 l 0.03646,-0.02734 q 0.423828,-0.01823 0.565104,-0.04557 0.141276,-0.02734 0.186849,-0.06836 0.05013,-0.04557 0.07747,-0.186849 0.0319,-0.141276 0.03646,-0.628906 l 0.0046,-0.961588 v -2.110025 l -0.0091,-0.888672 q -0.0046,-0.519531 -0.02734,-0.669922 -0.01823,-0.15039 -0.0638,-0.20052 -0.04102,-0.05013 -0.164063,-0.08203 -0.123047,-0.0319 -0.606119,-0.05013 l -0.03646,-0.0319 v -0.227864 z"
             style="font-style:normal;font-variant:normal;font-weight:normal;font-stretch:normal;font-size:9.33333px;font-family:'Palatino Linotype';-inkscape-font-specification:'Palatino Linotype'"
             id="path928" />
        </g>
        <g
           aria-label="PORTAL"
           id="text43"
           style="font-size:9.33333px;line-height:1.25;font-family:sans-serif">
          <path
             d="m 32.014913,74.314516 q 1.148437,0.03646 1.46289,0.03646 0.428385,0 0.961588,-0.02279 0.565104,-0.01823 0.697266,-0.01823 0.63802,0 1.052734,0.132161 0.41927,0.132162 0.692708,0.483073 0.273437,0.350912 0.273437,0.847656 0,0.410156 -0.191406,0.792969 -0.191406,0.382812 -0.533203,0.651692 -0.341797,0.26888 -0.692708,0.38737 -0.350911,0.113932 -0.729167,0.113932 -0.282552,0 -0.628906,-0.0638 l -0.07747,-0.277995 0.04102,-0.04557 q 0.341797,0.07747 0.555989,0.07747 0.597005,0 0.957031,-0.391927 0.364584,-0.396484 0.364584,-1.011718 0,-0.619791 -0.378255,-0.988932 -0.373698,-0.36914 -1.134766,-0.36914 -0.414713,0 -0.911458,0.154947 -0.04102,0.350912 -0.04102,1.695312 v 2.110026 l 0.0046,0.888671 q 0.0046,0.514974 0.02734,0.665365 0.02279,0.15039 0.0638,0.20052 0.04557,0.05013 0.168619,0.08659 0.123047,0.0319 0.60612,0.05013 l 0.03646,0.02734 v 0.227864 l -0.03646,0.03646 q -1.162109,-0.03646 -1.307942,-0.03646 -0.154948,0 -1.303385,0.03646 l -0.03646,-0.03646 v -0.227864 l 0.03646,-0.02734 q 0.423828,-0.01823 0.565104,-0.04557 0.141276,-0.02734 0.186849,-0.06836 0.05013,-0.04557 0.07747,-0.186849 0.0319,-0.141276 0.03646,-0.628906 l 0.0046,-0.961588 v -2.110026 l -0.0091,-0.888671 q -0.0046,-0.519531 -0.02734,-0.669922 -0.01823,-0.15039 -0.0638,-0.200521 -0.04102,-0.05013 -0.164063,-0.08203 -0.123046,-0.0319 -0.606119,-0.05013 l -0.03646,-0.0319 v -0.227865 z"
             style="font-style:normal;font-variant:normal;font-weight:normal;font-stretch:normal;font-size:9.33333px;font-family:'Palatino Linotype';-inkscape-font-specification:'Palatino Linotype'"
             id="path931" />
          <path
             d="m 37.60215,77.613994 q 0,-0.683593 0.195964,-1.276041 0.195963,-0.592448 0.665364,-1.093749 0.473958,-0.50586 1.139323,-0.779297 0.665364,-0.277995 1.503905,-0.277995 1.554036,0 2.474609,0.847656 0.920573,0.843099 0.920573,2.305989 0,1.029948 -0.451172,1.85026 -0.451172,0.820312 -1.294271,1.276041 -0.838541,0.455729 -1.886718,0.455729 -0.742838,0 -1.367187,-0.246094 -0.624348,-0.250651 -1.066406,-0.742838 -0.437499,-0.492187 -0.63802,-1.139322 -0.195964,-0.647136 -0.195964,-1.180339 z m 0.947917,-0.300781 q 0,0.55599 0.177734,1.198568 0.182292,0.63802 0.53776,1.098306 0.360026,0.455729 0.82487,0.679037 0.469401,0.223307 1.066406,0.223307 0.70638,0 1.257812,-0.323568 0.551432,-0.323567 0.838541,-1.002604 0.287109,-0.683593 0.287109,-1.531249 0,-0.920573 -0.328125,-1.663411 -0.328124,-0.742838 -0.934244,-1.080078 -0.60612,-0.337239 -1.344401,-0.337239 -1.107421,0 -1.745442,0.692708 -0.63802,0.692708 -0.63802,2.046223 z m 2.433593,-3.335936 z m 0.02279,7.050128 z"
             style="font-style:normal;font-variant:normal;font-weight:normal;font-stretch:normal;font-size:9.33333px;font-family:'Palatino Linotype';-inkscape-font-specification:'Palatino Linotype'"
             id="path933" />
          <path
             d="m 44.912044,74.346417 0.03646,-0.0319 q 0.833984,0.03646 1.298828,0.03646 0.514973,0 1.389973,-0.0319 0.323568,-0.0091 0.469401,-0.0091 1.152994,0 1.56315,0.419271 0.410156,0.41927 0.410156,0.993489 0,0.382812 -0.20052,0.751953 -0.200521,0.36914 -0.592448,0.633463 -0.391927,0.259766 -1.080078,0.391927 0.127604,0.177734 0.460287,0.615234 l 0.647135,0.856771 q 0.314453,0.423828 0.674479,0.897786 0.360026,0.469401 0.464843,0.533203 0.104818,0.05924 0.177735,0.07292 0.07747,0.01367 0.241536,0.01367 l 0.03646,0.03646 v 0.214192 l -0.04101,0.04102 q -0.21875,-0.02734 -0.519531,-0.02734 -0.323568,0 -0.70638,0.02734 -0.314453,-0.382812 -0.988932,-1.326171 -0.783854,-1.09375 -1.604166,-2.027994 l 0.04557,-0.141276 q 0.23698,0.01367 0.369141,0.01367 0.788411,0 1.235026,-0.378255 0.446614,-0.378255 0.446614,-1.048176 0,-0.601563 -0.401042,-0.906901 -0.401041,-0.309896 -1.084635,-0.309896 -0.478515,0 -0.902343,0.132162 -0.06836,0.10026 -0.06836,1.708983 v 2.110026 l 0.0046,0.888671 q 0.0046,0.514974 0.02734,0.665365 0.02279,0.15039 0.0638,0.20052 0.04557,0.05013 0.168619,0.08659 0.123047,0.0319 0.60612,0.05013 l 0.03646,0.02734 v 0.227864 l -0.03646,0.03646 q -0.02279,0 -0.802083,-0.02734 -0.323568,-0.0091 -0.505859,-0.0091 -0.141276,0 -1.303385,0.03646 l -0.03646,-0.03646 v -0.227864 l 0.03646,-0.02734 q 0.423828,-0.01823 0.565104,-0.04557 0.141276,-0.02734 0.186849,-0.06836 0.05013,-0.04557 0.07747,-0.186849 0.0319,-0.141276 0.03646,-0.628906 l 0.0046,-0.961588 v -2.110026 l -0.0091,-0.888671 q -0.0046,-0.519531 -0.02734,-0.669922 -0.01823,-0.15039 -0.0638,-0.200521 -0.04102,-0.05013 -0.164063,-0.08203 -0.123046,-0.0319 -0.606119,-0.05013 l -0.03646,-0.0319 z"
             style="font-style:normal;font-variant:normal;font-weight:normal;font-stretch:normal;font-size:9.33333px;font-family:'Palatino Linotype';-inkscape-font-specification:'Palatino Linotype'"
             id="path935" />
          <path
             d="m 56.455659,74.314516 0.04102,0.04102 q -0.04102,0.410156 -0.04102,1.430989 l -0.03646,0.03646 h -0.214192 l -0.03646,-0.04102 -0.05013,-0.419271 q -0.03646,-0.337239 -0.05925,-0.410156 -0.01823,-0.07747 -0.0638,-0.109375 -0.04557,-0.03646 -0.296224,-0.05925 -0.25065,-0.02279 -0.560546,-0.02279 h -0.861328 q -0.03646,1.029947 -0.03646,1.189453 v 2.6569 l 0.0091,0.888671 q 0.0046,0.514974 0.02279,0.669922 0.02279,0.15039 0.0638,0.200521 0.04557,0.04557 0.168619,0.08203 0.123047,0.0319 0.610677,0.05013 l 0.0319,0.02734 v 0.227864 l -0.0319,0.03646 q -1.166666,-0.03646 -1.303385,-0.03646 -0.145833,0 -1.298827,0.03646 l -0.03646,-0.03646 v -0.227864 l 0.03646,-0.02734 q 0.428385,-0.01823 0.565104,-0.04557 0.141276,-0.02734 0.186849,-0.06836 0.05013,-0.04557 0.08203,-0.186849 0.0319,-0.141276 0.0319,-0.628906 l 0.0091,-0.961588 v -2.6569 q 0,-0.07292 -0.03646,-1.189453 h -0.679036 q -0.419271,0 -0.724609,0.01823 -0.305339,0.01823 -0.355469,0.0957 -0.04557,0.07292 -0.08659,0.48763 l -0.04557,0.419271 -0.04102,0.04102 h -0.209635 l -0.03646,-0.03646 q -0.0091,-1.098307 -0.04101,-1.430989 l 0.04101,-0.04102 q 0.792969,0.03646 2.638671,0.03646 1.882161,0 2.643229,-0.03646 z"
             style="font-style:normal;font-variant:normal;font-weight:normal;font-stretch:normal;font-size:9.33333px;font-family:'Palatino Linotype';-inkscape-font-specification:'Palatino Linotype'"
             id="path937" />
          <path
             d="m 56.277925,80.790426 -0.04102,-0.03646 v -0.236979 l 0.04102,-0.03646 q 0.332682,-0.0046 0.428385,-0.0319 0.0957,-0.0319 0.16862,-0.11849 0.07747,-0.09114 0.305338,-0.583333 l 0.478516,-1.039062 1.239583,-2.807291 q 0.350911,-0.824869 0.697265,-1.649739 h 0.296224 l 1.945963,4.57552 0.259765,0.610676 q 0.113933,0.259766 0.259766,0.565104 0.15039,0.305339 0.205078,0.360026 0.05925,0.05469 0.141276,0.08659 0.08659,0.02734 0.378255,0.0319 l 0.03646,0.03646 v 0.236979 l -0.03646,0.03646 q -0.483073,-0.04102 -0.870442,-0.04102 -0.756511,0.02279 -1.513021,0.04102 l -0.03646,-0.03646 v -0.236979 l 0.03646,-0.03646 q 0.510417,-0.0091 0.638021,-0.04102 0.127604,-0.03646 0.127604,-0.159505 0,-0.10026 -0.0638,-0.264323 l -0.560547,-1.389973 h -2.638671 l -0.496744,1.166666 q -0.132162,0.314453 -0.132162,0.460286 0,0.113933 0.123047,0.16862 0.123047,0.05469 0.619791,0.05925 l 0.04102,0.03646 v 0.236979 l -0.03646,0.03646 q -0.587891,-0.03646 -1.029948,-0.03646 -0.501302,0 -1.011718,0.03646 z m 2.078124,-2.55664 h 2.305989 l -1.14388,-2.748046 z m 1.380859,-4.256509 z m -0.104818,7.050128 z"
             style="font-style:normal;font-variant:normal;font-weight:normal;font-stretch:normal;font-size:9.33333px;font-family:'Palatino Linotype';-inkscape-font-specification:'Palatino Linotype'"
             id="path939" />
          <path
             d="m 63.505787,74.346417 0.03646,-0.0319 q 1.130208,0.03646 1.303385,0.03646 0.154948,0 1.307942,-0.03646 l 0.03646,0.0319 v 0.227865 l -0.03646,0.0319 q -0.314453,0.0091 -0.48763,0.02734 -0.16862,0.01823 -0.246094,0.06836 -0.07747,0.05013 -0.104817,0.236979 -0.02279,0.182292 -0.02279,0.510417 l -0.0091,1.048176 v 2.014323 q 0,0.75651 0.0091,1.057291 l 0.02279,0.788411 h 0.929687 q 1.111979,0 1.385416,-0.02734 0.277995,-0.02734 0.533203,-0.132161 0.05013,-0.113932 0.141276,-0.524088 0.0957,-0.410157 0.10026,-0.473959 l 0.04102,-0.03646 h 0.223307 l 0.0319,0.03646 q -0.03646,0.182292 -0.07747,0.70638 -0.03646,0.524089 -0.03646,0.847656 l -0.03646,0.03646 q -0.865885,-0.02734 -2.274088,-0.02734 l -1.330729,-0.0091 q -0.455729,0 -0.929687,0.03646 l -0.03646,-0.03646 v -0.15039 l 0.03646,-0.04557 q 0.282552,-0.145833 0.309896,-0.177735 0.02734,-0.0319 0.05469,-0.58789 0.0319,-0.555989 0.0319,-1.339843 v -1.955078 l -0.0091,-0.888671 q -0.0046,-0.519531 -0.02734,-0.669922 -0.01823,-0.15039 -0.0638,-0.200521 -0.04102,-0.05013 -0.164063,-0.08203 -0.123046,-0.0319 -0.606119,-0.05013 l -0.03646,-0.0319 z"
             style="font-style:normal;font-variant:normal;font-weight:normal;font-stretch:normal;font-size:9.33333px;font-family:'Palatino Linotype';-inkscape-font-specification:'Palatino Linotype'"
             id="path941" />
        </g>
        <g
           aria-label="G"
           id="text47"
           style="font-size:40px;line-height:1.25;font-family:sans-serif">
          <path
             d="m 44.138764,50.764198 v 0.585938 l -0.07813,0.234375 -0.957031,0.566406 q -0.351562,0.214844 -0.410156,0.332031 -0.05859,0.117188 -0.15625,1.171875 -0.07813,1.035157 -0.07813,2.539063 0,1.699219 0.214844,3.691406 l -0.117188,0.195313 q -5.351562,2.050781 -10.996094,2.050781 -4.335937,0 -7.832031,-1.640625 -3.496094,-1.640625 -5.546875,-4.863281 -2.050781,-3.222657 -2.050781,-7.65625 0,-6.757813 4.609375,-10.742188 4.628906,-3.984375 12.070312,-3.984375 5.46875,0 9.824219,1.855469 l 0.136719,0.214844 q -0.351563,1.308593 -0.820313,5.488281 l -0.15625,0.136719 h -0.898437 l -0.15625,-0.15625 -0.09766,-2.070313 q -0.05859,-1.015625 -0.136719,-1.191406 -0.05859,-0.175781 -0.410156,-0.449219 -0.351563,-0.292969 -1.816407,-0.898437 -1.445312,-0.625 -2.910156,-0.898438 -1.464844,-0.292969 -3.144531,-0.292969 -3.574219,0 -6.328125,1.484375 -2.753906,1.484375 -4.160156,4.335938 -1.386719,2.832031 -1.386719,6.308594 0,3.59375 1.503906,6.699218 1.503906,3.085938 4.316406,4.824219 2.8125,1.738281 6.542969,1.738281 1.621094,0 3.300781,-0.3125 1.699219,-0.332031 2.792969,-0.917968 0.175781,-0.625 0.175781,-2.519532 v -2.167968 q 0,-1.542969 -0.195312,-1.914063 -0.195313,-0.390625 -0.976563,-0.546875 -0.761718,-0.15625 -3.320312,-0.195312 l -0.175781,-0.175782 v -0.859375 l 0.175781,-0.175781 1.191406,0.03906 q 3.066406,0.09766 5,0.09766 1.113281,0 3.261719,-0.117188 z"
             style="font-style:normal;font-variant:normal;font-weight:normal;font-stretch:normal;font-size:40px;font-family:'Palatino Linotype';-inkscape-font-specification:'Palatino Linotype'"
             id="path944" />
        </g>
        <g
           aria-label="S"
           id="text51"
           style="font-size:16px;line-height:1.25;font-family:sans-serif">
          <path
             d="m 61.165985,54.590771 0.15625,-0.15625 h 0.957031 l 0.15625,0.15625 q 0.09766,2.5 0.253907,3.066406 0.175781,0.546875 1.054687,1.171875 0.898438,0.605469 2.363281,0.996094 1.484375,0.390625 2.988282,0.390625 2.070312,0 3.710937,-0.761719 1.660156,-0.761719 2.578125,-2.226563 0.917969,-1.484375 0.917969,-3.320312 0,-1.289063 -0.449219,-2.246094 -0.429687,-0.957031 -1.230469,-1.523437 -0.78125,-0.585938 -1.796875,-0.859375 -1.015625,-0.292969 -3.027343,-0.625 -1.953125,-0.3125 -3.066407,-0.566407 -1.09375,-0.253906 -2.1875,-0.78125 -1.09375,-0.527343 -1.835937,-1.328125 -0.722656,-0.820312 -1.171875,-1.992187 -0.429688,-1.191406 -0.429688,-2.539063 0,-3.652343 2.539063,-5.976562 2.539062,-2.34375 6.816406,-2.34375 1.699219,0 3.691406,0.429687 2.011719,0.410157 3.652344,1.230469 l 0.136719,0.234375 q -0.429688,1.796875 -0.527344,5.117188 l -0.175781,0.15625 h -1.015625 l -0.15625,-0.136719 q -0.03906,-2.34375 -0.117188,-2.949219 -0.07813,-0.605469 -1.777343,-1.503906 -1.699219,-0.898438 -3.691407,-0.898438 -1.660156,0 -3.105468,0.664063 -1.445313,0.664062 -2.1875,2.089844 -0.742188,1.425781 -0.742188,2.910156 0,1.152344 0.449219,2.050781 0.449219,0.878906 1.152344,1.40625 0.722656,0.507813 1.660156,0.761719 0.957031,0.253906 3.476562,0.625 3.457032,0.488281 5.019532,1.191406 1.582031,0.683594 2.519531,2.1875 0.957031,1.503906 0.957031,3.632813 0,4.160156 -3.398437,6.933593 -3.378907,2.773438 -8.203125,2.773438 -4.042969,0 -7.089844,-1.445313 l -0.117188,-0.253906 q 0.195313,-1.230469 0.292969,-5.742187 z"
             style="font-style:normal;font-variant:normal;font-weight:normal;font-stretch:normal;font-size:40px;font-family:'Palatino Linotype';-inkscape-font-specification:'Palatino Linotype'"
             id="path947" />
        </g>
        <path
           style="fill:#000000;stroke:#000000;stroke-width:1px;stroke-linecap:butt;stroke-linejoin:miter;stroke-opacity:1;fill-opacity:0"
           d="M 51,32 V 70"
           id="path896" />
        <path
           style="fill:none;stroke:#000000;stroke-width:1px;stroke-linecap:butt;stroke-linejoin:miter;stroke-opacity:1"
           d="M 85,70 H 51 15"
           id="path898" />
      </g>
    </g>
  </g>
</svg>
